<?xml version="1.0" encoding="utf-8"?>
<!-- Generator: Adobe Illustrator 23.0.1, SVG Export Plug-In . SVG Version: 6.00 Build 0)  -->
<svg version="1.1" xmlns="http://www.w3.org/2000/svg" xmlns:xlink="http://www.w3.org/1999/xlink" x="0px" y="0px"
	 viewBox="0 0 170 80" style="enable-background:new 0 0 170 80;" xml:space="preserve">
<style type="text/css">
	.st0{opacity:0.51;fill:#FFFFFF;fill-opacity:0;}
	.st1{fill-rule:evenodd;clip-rule:evenodd;fill:#454E3F;}
	.st2{fill:#454E3F;}
	.st3{clip-path:url(#SVGID_2_);fill:#A7852E;}
	.st4{clip-path:url(#SVGID_2_);fill:#FFFFFF;}
</style>
<g id="master-artboard">
	<rect id="ee-background" class="st0" width="170" height="80"/>
	<g id="Layer_4">
		<g>
			<path class="st1" d="M45.54,34.85h1.71c2.53,0,3.35,1.98,3.35,3.45c0,1.88-1.3,2.99-3.35,2.99c-0.72,0-1.09-0.02-1.71-0.24V34.85
				 M45.54,41.68c1.01,0.12,1.52,0.15,2.12,0.15c3.14,0,4.87-1.28,4.87-3.57c0-1.91-1.54-3.93-5.35-3.93h-5.04v0.41
				c1.16,0,1.57,0.51,1.57,2.2v8.66c0,1.83-0.6,2.15-1.57,2.15v0.41h4.97v-0.41c-1.16,0-1.57-0.48-1.57-2.19V41.68z"/>
			<path class="st1" d="M58.87,42.81h-3.24l1.61-4.88h0.04L58.87,42.81 M60.18,46.71c0.26,0.78-0.12,1.13-0.9,1.13v0.34h4.06v-0.34
				c-1.03,0-1.31-0.32-1.65-1.39l-3.34-9.91h-1.19l-3.18,9.49c-0.36,1.07-0.62,1.65-1.71,1.81v0.34h2.97v-0.34
				c-1.21-0.02-1-0.88-0.62-2.01l0.78-2.31h3.72L60.18,46.71z"/>
			<path class="st2" d="M75.74,38.81c0-1.35,0.36-1.81,1.49-1.81v-0.34h-3.48V37c1.01,0,1.41,0.38,1.41,1.89v6.73h-0.04l-7.2-8.96
				h-2.95V37c1.37,0.12,1.71,0.84,1.71,2.13v6.73c0,1.67-0.46,1.97-1.43,1.97v0.34h3.5v-0.34c-1.05,0-1.51-0.42-1.51-1.59v-8.08
				h0.04l8.12,10.01h0.34V38.81"/>
			<path class="st1" d="M90.04,34.85h1.71c2.53,0,3.35,1.98,3.35,3.45c0,1.88-1.3,2.99-3.35,2.99c-0.72,0-1.09-0.02-1.71-0.24V34.85
				 M90.04,41.68c1.01,0.12,1.52,0.15,2.12,0.15c3.14,0,4.87-1.28,4.87-3.57c0-1.91-1.54-3.93-5.35-3.93h-5.04v0.41
				c1.16,0,1.57,0.51,1.57,2.2v8.66c0,1.83-0.6,2.15-1.57,2.15v0.41h4.97v-0.41c-1.16,0-1.57-0.48-1.57-2.19V41.68z"/>
			<path class="st1" d="M103.37,42.81h-3.24l1.61-4.88h0.04L103.37,42.81 M104.68,46.71c0.26,0.78-0.12,1.13-0.9,1.13v0.34h4.06
				v-0.34c-1.03,0-1.31-0.32-1.65-1.39l-3.34-9.91h-1.19l-3.18,9.49c-0.36,1.07-0.62,1.65-1.71,1.81v0.34h2.98v-0.34
				c-1.21-0.02-1.01-0.88-0.62-2.01l0.78-2.31h3.72L104.68,46.71z"/>
			<path class="st2" d="M119.01,39.93V36.5h-0.32c-0.12,0.24-0.32,0.36-0.62,0.36c-0.68,0-1.77-0.48-3.22-0.48
				c-3.44,0-5.95,2.69-5.95,6.35c0,3.84,2.89,5.73,5.67,5.73c2.21,0,4.04-1.15,4.8-2.98l-0.3-0.28c-0.86,1.69-2.21,2.53-4.02,2.53
				c-2.59,0-4.38-2.27-4.38-5.73c0-2.95,1.49-5.19,4.26-5.19c1.99,0,3.18,0.94,3.74,3.12H119.01"/>
			<path class="st2" d="M124.22,38.83c0-1.39,0.34-1.83,1.31-1.83v-0.34h-4.14V37c0.99,0,1.31,0.38,1.31,1.83V46
				c0,1.47-0.36,1.83-1.31,1.83v0.34h4.14v-0.34c-0.96,0-1.31-0.42-1.31-1.83V38.83"/>
			<path class="st2" d="M130.41,42.61h3.04c0.8,0,1.21,0.48,1.25,1.31h0.32v-3.24h-0.32c-0.1,0.92-0.42,1.37-1.29,1.37h-3v-4.82
				h2.94c1.25,0,1.59,0.08,1.87,1.49h0.26v-2.05h-7.9V37c0.96,0,1.31,0.38,1.31,1.83V46c0,1.43-0.34,1.83-1.31,1.83v0.34h4.14v-0.34
				c-0.96,0-1.31-0.42-1.31-1.83V42.61"/>
			<path class="st2" d="M140.24,38.83c0-1.39,0.34-1.83,1.31-1.83v-0.34h-4.14V37c0.98,0,1.31,0.38,1.31,1.83V46
				c0,1.47-0.36,1.83-1.31,1.83v0.34h4.14v-0.34c-0.96,0-1.31-0.42-1.31-1.83V38.83"/>
			<path class="st2" d="M154.23,39.93V36.5h-0.32c-0.12,0.24-0.32,0.36-0.62,0.36c-0.68,0-1.77-0.48-3.22-0.48
				c-3.44,0-5.95,2.69-5.95,6.35c0,3.84,2.89,5.73,5.67,5.73c2.21,0,4.04-1.15,4.8-2.98l-0.3-0.28c-0.86,1.69-2.21,2.53-4.02,2.53
				c-2.59,0-4.38-2.27-4.38-5.73c0-2.95,1.49-5.19,4.26-5.19c1.99,0,3.18,0.94,3.74,3.12H154.23"/>
			<g>
				<defs>
					<path id="SVGID_1_" d="M0,64.63 M0,18.35v46.28h166.63V18.35H0z"/>
				</defs>
				<clipPath id="SVGID_2_">
					<use xlink:href="#SVGID_1_"  style="overflow:visible;"/>
				</clipPath>
				<path class="st3" d="M0.01,28.61v28.57c0.07,1.06,0.36,1.97,1.22,2.83c1.02,1.04,2.05,1.29,3.5,1.29H26
					c1.44,0,2.48-0.26,3.5-1.29c0.85-0.86,1.15-1.77,1.22-2.83V28.61c0-3.21-4.85-10.26-15.36-10.26
					C4.74,18.35,0.01,25.4,0.01,28.61"/>
				<path class="st4" d="M17.46,54.49c0.59-1.06,1.38-2.03,2.54-2.95c1.02-0.82,2.04-1.33,3.08-1.67c0.96-0.32,1.93-0.49,3-0.49
					h4.69v1.46c-0.21,0.1-0.45,0.2-0.67,0.28c-0.94,0.35-2.55,0.32-3.35,0.32c-0.06,0.36-0.12,0.71-0.51,1.07
					c-0.41,0.36-0.99,0.71-1.71,0.82c-1.58,0.24-2.51,0.39-3.95,1.07c-0.85,0.4-1.65,0.85-2.41,1.49c-0.26,0.22-0.58,0.55-0.8,0.86
					c-0.26,0.36-0.42,0.79-0.6,1.07c-0.11,0.16-0.28,0.23-0.42,0.26C16.45,56.72,16.9,55.51,17.46,54.49"/>
				<path class="st4" d="M15.38,27.66c0.18,0,0.25-0.92,0.22-1.48c-0.02-0.24-0.03-0.93-0.02-1.22c0.01-0.49,0.33-2.75,0.44-3.36
					c1.61,0.16,2.64,1.65,2.6,2.96c-0.59,1.26-0.95,2.28-1.42,3.75c-0.62,1.95-0.79,3.09-1.1,5.12c-0.29,1.88-0.37,2.8-0.37,4.64
					c0,1.62,0.18,2.47,0.19,4.19c0.01,0.34-0.05,0.75-0.22,1.06c-0.09,0.18-0.19,0.31-0.32,0.4c-0.13-0.09-0.23-0.22-0.32-0.4
					c-0.17-0.31-0.23-0.72-0.22-1.06c0.01-1.72,0.18-2.58,0.19-4.19c0-1.84-0.08-2.76-0.37-4.64c-0.32-2.02-0.49-3.16-1.1-5.12
					c-0.47-1.46-0.83-2.49-1.42-3.75c-0.03-1.3,1-2.79,2.61-2.96c0.12,0.61,0.43,2.87,0.43,3.36c0.01,0.3-0.01,0.98-0.02,1.22
					C15.12,26.74,15.2,27.66,15.38,27.66"/>
				<path class="st4" d="M30.74,45.2c-0.58,0.46-1.11,0.77-1.77,1.01c-0.87,0.32-2.34,0.3-3.07,0.3c0.12,0.35,0.03,0.76-0.33,1.08
					c-0.38,0.34-1.06,0.54-1.71,0.64c-1.45,0.22-2.3,0.35-3.63,0.98c-0.78,0.36-1.51,0.78-2.21,1.37c-0.24,0.2-0.54,0.51-0.73,0.78
					c-0.24,0.33-0.38,0.73-0.55,0.98c-0.1,0.15-0.26,0.21-0.38,0.24c0.09-1.25,0.5-2.36,1.02-3.3c0.53-0.98,1.26-1.86,2.33-2.71
					c0.94-0.75,1.88-1.21,2.83-1.53c0.88-0.29,1.77-0.45,2.76-0.45h5.45V45.2"/>
				<path class="st4" d="M13.4,49.29c-0.54-0.98-1.26-1.86-2.33-2.71c-0.94-0.75-1.87-1.21-2.82-1.53
					c-0.88-0.29-1.77-0.45-2.76-0.45H0.03v0.59c0.59,0.46,1.11,0.77,1.77,1.02c0.86,0.32,2.34,0.3,3.07,0.3
					c-0.12,0.35-0.04,0.76,0.33,1.08c0.38,0.34,1.05,0.54,1.71,0.64c1.45,0.22,2.3,0.35,3.63,0.98c0.78,0.36,1.51,0.78,2.21,1.37
					c0.24,0.2,0.53,0.51,0.73,0.78c0.23,0.33,0.38,0.73,0.55,0.98c0.1,0.15,0.25,0.21,0.38,0.24C14.33,51.34,13.91,50.23,13.4,49.29
					"/>
				<path class="st4" d="M13.31,54.49c-0.59-1.06-1.38-2.03-2.54-2.95c-1.02-0.82-2.04-1.33-3.08-1.67c-0.96-0.32-1.93-0.49-3-0.49
					H0v1.46c0.21,0.1,0.45,0.2,0.67,0.28c0.94,0.35,2.55,0.32,3.35,0.32c0.06,0.36,0.12,0.71,0.51,1.07
					c0.41,0.36,0.99,0.71,1.71,0.82c1.58,0.24,2.51,0.39,3.95,1.07c0.85,0.4,1.65,0.85,2.41,1.49c0.26,0.22,0.58,0.55,0.8,0.86
					c0.26,0.36,0.42,0.79,0.6,1.07c0.11,0.16,0.28,0.23,0.42,0.26C14.32,56.72,13.87,55.51,13.31,54.49"/>
				<path class="st4" d="M27.14,41.32c-0.75,0.28-2,0.29-2.62,0.29c0.25,0.36,0.15,0.85-0.15,1.17c-0.33,0.33-1.03,0.42-1.59,0.51
					c-1.24,0.21-1.97,0.35-3.1,0.95c-0.67,0.36-1.29,0.77-1.89,1.34c-0.21,0.19-0.46,0.49-0.63,0.76c-0.2,0.33-0.33,0.71-0.47,0.96
					c-0.09,0.14-0.22,0.2-0.32,0.24c0.07-1.23,0.43-2.31,0.87-3.23c0.46-0.95,1.08-1.81,1.99-2.64c0.8-0.72,1.6-1.18,2.41-1.48
					c0.76-0.29,1.52-0.44,2.36-0.44h5.46C29.2,40.25,28,41,27.14,41.32"/>
				<path class="st4" d="M3.63,41.32c0.75,0.28,2,0.29,2.63,0.29c-0.25,0.36-0.15,0.85,0.15,1.17C6.74,43.11,7.44,43.2,8,43.29
					c1.24,0.21,1.97,0.35,3.1,0.95c0.67,0.36,1.3,0.77,1.89,1.34c0.21,0.19,0.46,0.49,0.62,0.76c0.21,0.33,0.33,0.71,0.48,0.96
					c0.09,0.14,0.22,0.2,0.32,0.24c-0.07-1.23-0.43-2.31-0.87-3.23c-0.46-0.95-1.08-1.81-1.99-2.64c-0.8-0.72-1.6-1.18-2.42-1.48
					c-0.76-0.29-1.52-0.44-2.36-0.44H1.33C1.57,40.25,2.77,41,3.63,41.32"/>
				<path class="st4" d="M14.44,37.65c-0.03-0.64-0.07-1.27-0.15-1.94c-0.09-0.81-0.23-1.68-0.44-2.66
					c-0.22-0.99-0.46-2.01-0.74-2.96c-0.2-0.69-0.42-1.36-0.67-1.96c-0.48-1.21-0.97-2.12-1.41-2.75c-0.2-0.07-0.69-0.16-1.2-0.11
					c-0.45,0.05-0.91,0.16-1.27,0.36c0.26,0.29,0.5,0.57,0.74,0.85c0.29,0.36,0.55,0.68,0.69,0.87c0.18,0.25,0.6,0.87,0.86,1.29
					c0.7,1.11,1.14,2.53,1.27,2.82c-0.42-0.8-1.09-2.05-1.59-2.67c-0.02-0.03-0.1-0.13-0.14-0.17c-1.25-1.52-2.4-2.46-2.4-2.46
					s-0.54,0.51-0.68,1.36c-0.08,0.48-0.09,1.04,0.05,1.5c0.6,0.53,1.28,1.15,2.1,2.04c0.91,1,1.87,2.19,2.55,3.31
					c0.35,0.6,0.67,1.21,0.93,1.8c0.19,0.44,0.36,0.85,0.49,1.24c0.1,0.32,0.2,0.76,0.26,1.23c0.03,0.26,0.05,0.64,0.04,0.88
					c-0.02,0.36-0.07,0.82-0.04,1.16c0.03,0.44,0.3,0.76,0.61,0.91c0.05-0.72,0.1-1.35,0.13-2.01
					C14.47,38.92,14.47,38.23,14.44,37.65"/>
				<path class="st4" d="M16.31,37.65c0.03-0.64,0.07-1.27,0.15-1.94c0.09-0.81,0.23-1.68,0.44-2.66c0.22-0.99,0.46-2.01,0.74-2.96
					c0.2-0.69,0.42-1.36,0.67-1.96c0.48-1.21,0.97-2.12,1.41-2.75c0.2-0.07,0.69-0.16,1.2-0.11c0.44,0.05,0.91,0.16,1.27,0.36
					c-0.26,0.29-0.5,0.57-0.74,0.85c-0.29,0.36-0.55,0.68-0.69,0.87c-0.18,0.25-0.6,0.87-0.86,1.29c-0.7,1.11-1.14,2.53-1.27,2.82
					c0.42-0.8,1.09-2.05,1.59-2.67c0.02-0.03,0.1-0.13,0.14-0.17c1.25-1.52,2.4-2.46,2.4-2.46s0.54,0.51,0.68,1.36
					c0.08,0.48,0.09,1.04-0.06,1.5c-0.6,0.53-1.28,1.15-2.1,2.04c-0.91,1-1.87,2.19-2.55,3.31c-0.35,0.6-0.67,1.21-0.93,1.8
					c-0.19,0.44-0.36,0.85-0.49,1.24c-0.1,0.32-0.2,0.76-0.27,1.23c-0.03,0.26-0.05,0.64-0.04,0.88c0.02,0.36,0.07,0.82,0.04,1.16
					c-0.03,0.44-0.3,0.76-0.61,0.91c-0.05-0.72-0.1-1.35-0.13-2.01C16.28,38.92,16.28,38.23,16.31,37.65"/>
				<path class="st4" d="M13.3,39.23C13.3,39.23,13.3,39.23,13.3,39.23c-0.06-0.42-0.21-1.11-0.47-1.75
					c-0.22-0.56-0.54-1.24-0.92-1.9c-0.54-0.91-1.09-1.66-1.57-2.21c-0.46-0.53-1.11-1.2-1.7-1.67c-0.58-0.46-1.15-0.83-1.5-1.06
					c-0.41,0.03-0.77,0.14-1.1,0.32c-0.38,0.2-0.69,0.61-0.84,0.93c0.69,0.19,1.44,0.45,2.25,0.91c0.91,0.52,2.33,1.59,2.85,2.04
					c-1.27-0.86-1.96-1.16-2.97-1.62c-0.82-0.43-2.32-0.75-2.32-0.75c-0.08,0.21-0.01,0.95,0.11,1.36c0.14,0.47,0.35,0.82,0.56,0.96
					c0.61,0.09,1.29,0.21,2.01,0.37c0.73,0.17,1.54,0.41,2.01,0.61c1.16,0.5,1.79,1.15,2.23,1.92c0.18,0.32,0.46,0.88,0.54,1.06
					c0,0,0.65,1.44,0.83,0.98C13.32,39.73,13.36,39.58,13.3,39.23"/>
				<path class="st4" d="M17.47,39.23L17.47,39.23c0.06-0.42,0.21-1.11,0.46-1.75c0.22-0.56,0.54-1.24,0.92-1.9
					c0.54-0.91,1.1-1.66,1.58-2.21c0.46-0.53,1.11-1.2,1.7-1.67c0.58-0.46,1.16-0.83,1.5-1.06c0.41,0.03,0.77,0.14,1.1,0.32
					c0.38,0.2,0.69,0.61,0.84,0.93c-0.69,0.19-1.44,0.45-2.25,0.91c-0.91,0.52-2.33,1.59-2.86,2.04c1.27-0.86,1.96-1.16,2.97-1.62
					c0.81-0.43,2.32-0.75,2.32-0.75c0.08,0.21,0.01,0.95-0.11,1.36c-0.14,0.47-0.34,0.82-0.57,0.96c-0.61,0.09-1.29,0.21-2.01,0.37
					c-0.73,0.17-1.54,0.41-2.01,0.61c-1.16,0.5-1.79,1.15-2.23,1.92c-0.18,0.32-0.46,0.88-0.54,1.06c0,0-0.65,1.44-0.83,0.98
					C17.45,39.73,17.41,39.58,17.47,39.23"/>
			</g>
			<g>
				<path class="st2" d="M43.41,58.92l-1.88-3.54h0.75l1.47,2.8l1.47-2.8h0.75l-1.88,3.54v2.57h-0.68V58.92z"/>
				<path class="st2" d="M46.47,61.5l1.88-6.11h1.01l1.88,6.11h-0.71l-0.58-1.91h-2.19l-0.58,1.91H46.47z M47.93,59.01h1.85
					l-0.88-3.15h-0.09L47.93,59.01z"/>
				<path class="st2" d="M52.99,61.5v-6.11h0.97l2.67,4.71h0.03v-4.71h0.61v6.11h-0.56l-3.1-5.45H53.6v5.45H52.99z"/>
				<path class="st2" d="M63.8,58.56v2.94h-0.56v-0.56h-0.02c-0.31,0.43-0.92,0.64-1.6,0.64c-1.39,0-2.39-1-2.39-3.14
					c0-2.14,1-3.14,2.39-3.14c1.03,0,1.83,0.49,2.2,1.8l-0.64,0.13c-0.3-0.97-0.81-1.35-1.52-1.35c-0.9,0-1.74,0.61-1.74,2.57
					c0,1.96,0.85,2.57,1.74,2.57c1,0,1.47-0.61,1.47-1.36v-0.52h-1.38v-0.58H63.8z"/>
				<path class="st2" d="M67.93,55.3c1.5,0,2.39,1.1,2.39,3.14c0,2.04-0.89,3.14-2.39,3.14s-2.39-1.1-2.39-3.14
					C65.54,56.4,66.43,55.3,67.93,55.3z M67.93,61c1.08,0,1.71-0.83,1.71-2.57c0-1.74-0.64-2.57-1.71-2.57
					c-1.08,0-1.71,0.83-1.71,2.57C66.22,60.17,66.85,61,67.93,61z"/>
				<path class="st2" d="M72.31,61.5v-6.11h0.97l2.67,4.71h0.03v-4.71h0.61v6.11h-0.56l-3.1-5.45h-0.02v5.45H72.31z"/>
			</g>
		</g>
	</g>
</g>
<g id="guides">
</g>
</svg>
